<svg width="179" height="117" viewBox="0 0 179 117" fill="none" xmlns="http://www.w3.org/2000/svg">
<path d="M2.92047 80.7664C2.92427 81.7862 0.280895 86.921 1.1905 91.826C2.10011 96.7292 25.7328 98.1762 27.8939 97.5286C31.5399 95.8727 32.14 77.4812 32.14 77.4812L40.3815 72.7793C40.3815 72.7793 37.4115 94.0554 40.7993 98.0167C47.2938 103.098 66.9804 102.024 69.3447 99.3536C71.7089 96.6836 69.8289 76.8982 69.8289 76.8982L62.9603 44.8074C62.9603 44.8074 52.5995 30.3373 40.4613 38.1022C26.2835 30.6886 21.105 37.3274 20.2315 36.5887C13.2699 44.7847 7.94325 61.9362 2.92047 80.7664Z" fill="#F17E4F"/>
<path d="M30.4136 34.7266C30.9947 34.8063 37.286 36.6008 37.286 36.6008L40.1895 38.4827L37.1606 41.4964L34.1944 37.4839L30.4136 34.7266Z" fill="#DD440E"/>
<path d="M51.6978 36.1465L58.4695 39.84L61.6256 43.8582L69.5158 70.9945L71.054 96.9288L66.2781 101.205L57.5542 100.882L62.8295 97.9847L64.1607 82.903L58.3556 50.0299L56.5553 42.0409L51.6978 36.1465Z" fill="#DD440E"/>
<path d="M27.1856 75.5273L32.1249 76.8832L30.5772 92.1434L28.57 97.1434L22.4629 97.6428L25.355 92.375L27.1856 75.5273Z" fill="#DD440E"/>
<path d="M16.4639 48.5076C16.5512 47.0719 18.5679 41.3332 23.6458 39.2159C27.1133 37.7708 30.6207 39.3146 31.6651 39.9546" stroke="white" stroke-width="2" stroke-miterlimit="10" stroke-linecap="round"/>
<path d="M38.3076 46.054C38.395 44.6184 40.0376 41.0217 43.9419 39.8272C46.3991 39.0753 48.7045 39.3525 49.747 39.9925" stroke="white" stroke-width="2" stroke-miterlimit="10" stroke-linecap="round"/>
<path d="M30.577 72.8936C29.3901 72.6202 27.5462 71.8587 26.8702 69.5856C26.1372 67.1227 26.6974 65.3965 26.6974 65.3965" stroke="white" stroke-width="2" stroke-miterlimit="10" stroke-linecap="round"/>
<path d="M8.43317 92.4231C7.33936 92.1307 4.78714 91.6635 4.35797 90.0228C3.87943 88.1922 5.09097 83.9746 5.09097 83.9746" stroke="white" stroke-width="2" stroke-miterlimit="10" stroke-linecap="round"/>
<path d="M20.125 97.4123C23.4691 97.8054 26.4885 97.8586 27.8937 97.5282C31.6385 96.6471 32.1265 76.8047 32.1265 76.8047" stroke="black" stroke-width="2" stroke-miterlimit="10" stroke-linecap="round"/>
<path d="M40.0111 38.4742C37.0525 35.2858 28.6933 34.0287 25.4194 34.7256" stroke="black" stroke-width="2" stroke-miterlimit="10" stroke-linecap="round"/>
<path d="M42.3373 61.3459C40.1725 70.1894 37.5025 94.652 40.3225 97.9164C43.1425 101.181 57.1151 101.152 61.8891 98.2677C68.7463 95.1856 58.2754 45.104 57.5025 45.0679C54.1812 35.2445 44.4908 31.7865 37.1227 41.5453C30.6396 29.8837 19.1243 34.6274 15.4422 42.9544C11.7601 51.2814 -0.805451 88.8165 1.39926 92.5252C3.60396 96.2339 18.8413 98.0873 22.5861 97.2061C26.3309 96.325 27.2728 75.9224 27.2728 75.9224" stroke="black" stroke-width="2" stroke-miterlimit="10" stroke-linecap="round"/>
<path d="M40.5168 71.7626C33.5134 81.4512 17.3361 78.0122 25.4466 54.7402" stroke="black" stroke-width="2" stroke-miterlimit="10" stroke-linecap="round"/>
<path d="M45.5259 100.014C55.1708 101.949 65.7272 102.547 69.3447 99.3548C74.0732 95.9632 68.249 61.7722 62.7154 45.3841C60.4727 38.9599 50.8278 34.7878 45.6151 35.8208" stroke="black" stroke-width="2" stroke-miterlimit="10" stroke-linecap="round"/>
<path d="M72.6504 86.4542C87.2535 87.8804 94.6519 71.9005 96.2394 57.7038C99.1715 39.1128 91.7161 22.5063 81.3591 20.125C86.266 28.5754 86.7731 63.7045 86.7731 63.7045C86.7731 63.7045 82.4719 80.1857 72.6504 86.4542Z" fill="#DD440E"/>
<path d="M74.2176 18.8132C68.5796 18.3327 53.6992 24.3335 52.6339 50.5659C50.9533 79.9278 61.7793 86.6692 66.785 86.9977C71.7888 87.3262 89.1663 86.2704 90.4804 53.4087C91.7945 20.5488 79.8538 19.2936 74.2176 18.8132ZM62.3946 53.2112C60.6058 53.627 59.9639 50.8526 61.749 50.4368C61.8819 51.0065 62.7421 53.1314 62.3946 53.2112ZM65.3437 44.531C65.3323 43.9176 65.6248 43.0574 65.3912 42.4801C65.1025 41.7642 65.826 41.1508 66.5647 40.7501C67.1857 40.414 67.6054 40.4064 67.894 41.1204C68.2055 41.8895 68.3175 42.6358 68.2605 43.4618C68.2263 43.9632 68.0137 44.7398 68.3574 45.1766C68.834 45.7843 68.1903 46.5211 67.5902 47.0889C67.068 47.5826 66.7622 47.7383 66.2875 47.1344C65.6684 46.3445 65.3627 45.5412 65.3437 44.531ZM66.2324 60.5621C66.2324 60.5621 67.1629 53.3821 70.0209 52.894C70.1462 52.6794 70.7406 52.3661 70.9647 52.2769C71.3805 52.1117 71.466 52.5408 71.9123 52.5047C72.3471 52.4706 72.9472 52.8409 73.1067 53.2491C73.3042 53.7524 73.4713 54.2423 73.8739 54.6126C73.984 54.7132 74.0695 54.8196 74.136 54.9297C74.3866 54.9867 74.6335 55.076 74.8633 55.1975C76.8021 56.2305 78.4409 60.3703 77.7744 62.4383C77.5047 63.2738 75.9153 62.7934 75.15 62.2598C74.3486 61.7015 72.8731 62.2408 71.9787 62.275C71.6996 62.2864 71.1679 62.4516 71.1679 62.4516C71.1679 62.4516 69.3619 63.2301 68.3517 63.2225C67.5788 63.2169 66.7129 62.3737 66.7414 61.6236L66.2324 60.5621ZM77.1211 45.3285C77.5636 47.1117 75.1424 47.4117 74.7019 45.6343C74.3847 44.36 74.8842 43.3099 74.6316 42.0395C74.2727 40.2431 76.1299 39.8082 76.4888 41.6065C76.7413 42.8807 76.8097 44.0771 77.1211 45.3285ZM82.4933 54.9069C82.1572 54.8177 81.8268 54.5271 81.6635 54.2271C81.5021 53.9309 81.4223 53.4504 81.5552 53.1257C81.559 53.1143 81.5628 53.1029 81.5666 53.0934C81.4907 52.9054 81.4546 52.7079 81.4622 52.5009C81.4831 52.3794 81.504 52.2579 81.5249 52.1363C81.6198 51.7755 82.3357 51.4774 82.6472 51.2894L82.4933 54.9069Z" fill="#F17E4F"/>
<path d="M59.6328 35.9626C60.0107 34.3884 61.3115 29.8916 65.5766 26.4165C68.4896 24.0428 71.49 23.1996 73.1155 22.8711" stroke="white" stroke-width="2" stroke-miterlimit="10" stroke-linecap="round"/>
<path d="M70.793 62.7845C71.1101 62.7143 74.12 62.0098 74.12 62.0098L77.5039 62.8966L77.0539 64.5145L74.6669 65.069L70.793 62.7845Z" fill="#DD440E"/>
<path d="M67.612 63.7273L63.9109 64.9351L61.8999 61.2207L64.2641 53.828L69.0154 51.3574L71.4441 52.0069L68.1855 54.3521L66.2884 59.5078L67.2208 63.1178L67.612 63.7273Z" fill="#DD440E"/>
<path d="M60.4496 49.4949L57.5993 48.2891L56.1143 51.7471L59.0368 55.9628L61.8606 56.1242L62.4777 54.2442L60.7326 52.1345L60.4496 49.4949Z" fill="#DD440E"/>
<path d="M66.8697 40.3539L64.1428 38.9961L61.8564 42.4484L62.8724 47.9858L65.5272 49.5582L67.7243 47.6554L65.3809 45.1469L65.3904 42.4788L66.8697 40.3539Z" fill="#DD440E"/>
<path d="M75.2459 40.4801L72.3309 39.5781L70.4775 44.5876L72.65 49.3597L75.318 49.4357L76.2333 47.7912L74.6591 44.8763L75.2459 40.4801Z" fill="#DD440E"/>
<path d="M82.2439 50.5154L79.8986 49.1387L77.2173 52.8796L77.899 56.8086L79.6784 57.7505L82.0559 56.0604C82.0559 56.0604 81.528 53.5747 81.4615 53.3563C81.395 53.1379 82.2439 50.5154 82.2439 50.5154Z" fill="#DD440E"/>
<path d="M81.2502 63.7207C81.2711 64.9379 80.9748 66.911 78.9315 68.113C76.7173 69.4157 74.8525 68.9923 74.8525 68.9923" stroke="white" stroke-width="2" stroke-miterlimit="10" stroke-linecap="round"/>
<path d="M66.7826 86.9957C71.7864 87.3242 89.1639 86.2684 90.478 53.4067C91.792 20.5449 79.8532 19.2916 74.2151 18.8093C68.5771 18.3288 53.6967 24.3296 52.6314 50.562C50.9508 79.9258 61.7788 86.6672 66.7826 86.9957Z" stroke="black" stroke-width="2" stroke-miterlimit="10"/>
<path d="M70.1289 87.0388C75.1327 87.3673 95.2257 86.1804 96.5417 53.3187C97.8577 20.457 79.8554 19.291 74.2174 18.8105" stroke="black" stroke-width="2" stroke-miterlimit="10"/>
<path d="M62.5439 63.3882C64.5853 67.1804 67.1793 63.0881 70.2595 63.185C73.2598 63.278 74.2112 66.9943 77.0293 64.4649C79.8474 61.9355 74.0631 51.5329 69.46 51.3905C64.8569 51.248 60.5025 59.5959 62.5439 63.3882Z" stroke="black" stroke-width="2" stroke-miterlimit="10"/>
<path d="M65.609 49.3107C67.3066 49.1489 68.4669 46.752 68.2004 43.9571C67.934 41.1621 66.3418 39.0276 64.6441 39.1894C62.9465 39.3512 61.7863 41.7482 62.0527 44.5431C62.3192 47.338 63.9114 49.4726 65.609 49.3107Z" stroke="black" stroke-width="2" stroke-miterlimit="10"/>
<path d="M74.2989 49.5803C75.9966 49.4184 77.1568 47.0215 76.8904 44.2266C76.6239 41.4316 75.0317 39.2971 73.3341 39.4589C71.6365 39.6208 70.4762 42.0177 70.7427 44.8126C71.0091 47.6076 72.6013 49.7421 74.2989 49.5803Z" stroke="black" stroke-width="2" stroke-miterlimit="10"/>
<path d="M82.8172 54.0298C83.2147 51.7911 82.3432 49.7643 80.8707 49.5029C79.3981 49.2415 77.8822 50.8444 77.4848 53.0831C77.0873 55.3219 77.9588 57.3486 79.4314 57.6101C80.9039 57.8715 82.4198 56.2686 82.8172 54.0298Z" stroke="black" stroke-width="2" stroke-miterlimit="10"/>
<path d="M61.428 56.1302C62.7114 55.4344 62.8518 53.2104 61.7417 51.1627C60.6315 49.1149 58.6912 48.019 57.4078 48.7148C56.1244 49.4106 55.9839 51.6346 57.0941 53.6823C58.2043 55.73 60.1446 56.826 61.428 56.1302Z" stroke="black" stroke-width="2" stroke-miterlimit="10"/>
<path d="M71.2962 52.0469C68.3889 52.5159 65.0334 59.5003 66.6153 62.44C66.995 63.1445 67.6882 63.4692 68.4952 63.5224" stroke="black" stroke-width="2" stroke-miterlimit="10"/>
<path d="M69.4448 63.2423C70.4057 62.7656 73.2466 62.1997 74.3309 62.2339C75.6659 62.2757 77.5041 62.8966 77.5041 62.8966" stroke="black" stroke-width="2" stroke-miterlimit="10"/>
<path d="M67.5856 47.2362C66.5886 47.4831 65.1397 45.5139 65.4644 43.349C65.6733 41.9628 66.3152 40.7209 66.7614 40.6582" stroke="black" stroke-width="2" stroke-miterlimit="10"/>
<path d="M76.3913 47.7555C75.5045 46.8231 74.8721 45.2469 74.7867 43.4733C74.7259 42.218 74.95 41.0787 75.3697 40.207" stroke="black" stroke-width="2" stroke-miterlimit="10"/>
<path d="M82.2039 55.8042C81.4253 54.7579 81.2145 52.9558 81.7709 51.2733C81.9038 50.8688 82.0728 50.4985 82.2684 50.1719" stroke="black" stroke-width="2" stroke-miterlimit="10"/>
<path d="M62.4608 54.3992C62.1171 54.0897 61.7886 53.7137 61.4942 53.275C60.6625 52.0369 60.3036 50.6165 60.4498 49.4961" stroke="black" stroke-width="2" stroke-miterlimit="10"/>
<path d="M58.6065 104.758C62.4828 104.758 65.6251 101.616 65.6251 97.7393C65.6251 93.863 62.4828 90.7207 58.6065 90.7207C54.7302 90.7207 51.5879 93.863 51.5879 97.7393C51.5879 101.616 54.7302 104.758 58.6065 104.758Z" fill="#F17E4F" stroke="black" stroke-width="2" stroke-miterlimit="10"/>
<path d="M54.5904 98.5724C53.9238 97.0855 54.3473 94.7269 56.4969 93.7243C58.8251 92.6362 60.9899 93.2856 62.3154 94.7269" stroke="white" stroke-width="2" stroke-miterlimit="10" stroke-linecap="round"/>
<path d="M154.67 7.76414C156.538 7.76414 158.052 6.24994 158.052 4.38207C158.052 2.5142 156.538 1 154.67 1C152.802 1 151.288 2.5142 151.288 4.38207C151.288 6.24994 152.802 7.76414 154.67 7.76414Z" fill="#F17E4F" stroke="black" stroke-width="2" stroke-miterlimit="10"/>
<path d="M152.889 4.53513C152.623 3.94075 152.792 2.99696 153.652 2.59438C154.585 2.15952 155.451 2.41967 155.98 2.99696" stroke="white" stroke-width="2" stroke-miterlimit="10" stroke-linecap="round"/>
<path d="M77.9226 84.2723C77.9872 85.2901 75.661 90.575 76.863 95.4155C78.067 100.256 101.745 100.273 103.863 99.4964C107.402 97.624 106.891 79.2305 106.891 79.2305L114.835 74.0406C114.835 74.0406 113.154 95.4572 116.776 99.2058C123.566 103.887 143.15 101.625 145.349 98.8184C147.548 96.0117 144.478 76.3764 144.478 76.3764L135.686 44.7585C135.686 44.7585 124.47 30.9396 112.822 39.4242C98.2227 32.8804 93.4543 39.8192 92.5371 39.1356C86.0825 47.7322 81.8003 65.1743 77.9226 84.2723Z" fill="#F17E4F"/>
<path d="M102.588 36.6562C103.173 36.6999 109.561 38.1128 109.561 38.1128L112.573 39.8161L109.732 43.0064L106.531 39.18L102.588 36.6562Z" fill="#DD440E"/>
<path d="M123.919 36.791L130.9 40.0686L134.291 43.8894L143.807 70.4997L146.906 96.2934L142.398 100.851L133.67 101.056L138.761 97.8449L139.181 82.7101L131.403 50.2471L129.122 42.3816L123.919 36.791Z" fill="#DD440E"/>
<path d="M101.827 77.5762L106.84 78.632L106.216 93.9567L104.514 99.0688L98.4487 99.9366L101.018 94.5036L101.827 77.5762Z" fill="#DD440E"/>
<path d="M89.4951 51.255C89.4951 49.8156 91.1624 43.9668 96.1016 41.5475C99.4761 39.8954 103.071 41.2247 104.149 41.8" stroke="white" stroke-width="2" stroke-miterlimit="10" stroke-linecap="round"/>
<path d="M111.151 47.4901C111.151 46.0507 112.573 42.3629 116.4 40.9349C118.808 40.0367 121.124 40.1734 122.205 40.7488" stroke="white" stroke-width="2" stroke-miterlimit="10" stroke-linecap="round"/>
<path d="M105.055 74.7425C103.853 74.5412 101.968 73.8918 101.157 71.6643C100.278 69.2507 100.731 67.4941 100.731 67.4941" stroke="white" stroke-width="2" stroke-miterlimit="10" stroke-linecap="round"/>
<path d="M84.1302 95.5738C83.0212 95.3479 80.4462 95.0345 79.9182 93.4242C79.3296 91.6259 80.2847 87.3418 80.2847 87.3418" stroke="white" stroke-width="2" stroke-miterlimit="10" stroke-linecap="round"/>
<path d="M96.1016 99.8478C99.4627 100.038 102.48 99.9086 103.863 99.4946C107.547 98.3894 106.836 78.5527 106.836 78.5527" stroke="black" stroke-width="2" stroke-miterlimit="10" stroke-linecap="round"/>
<path d="M112.395 39.8195C109.25 36.8153 100.828 36.0652 97.6035 36.9578" stroke="black" stroke-width="2" stroke-miterlimit="10" stroke-linecap="round"/>
<path d="M116.097 62.5089C114.47 71.4664 113.281 96.0467 116.293 99.1344C119.305 102.222 133.251 101.352 137.841 98.183C144.498 94.6927 131.023 45.3346 130.252 45.3441C126.344 35.7391 116.462 32.8735 109.698 43.0596C102.522 31.812 91.3139 37.2412 88.1426 45.7752C84.9713 54.3091 74.6922 92.5336 77.1171 96.1017C79.5421 99.6699 94.863 100.6 98.5471 99.4952C102.231 98.39 101.941 77.9685 101.941 77.9685" stroke="black" stroke-width="2" stroke-miterlimit="10" stroke-linecap="round"/>
<path d="M114.907 73.014C108.502 83.1071 92.1458 80.6517 98.8359 56.9316" stroke="black" stroke-width="2" stroke-miterlimit="10" stroke-linecap="round"/>
<path d="M121.613 100.911C131.358 102.26 141.93 102.222 145.348 98.8169C149.864 95.1462 141.987 61.3692 135.473 45.3456C132.847 39.0695 122.969 35.4862 117.828 36.8325" stroke="black" stroke-width="2" stroke-miterlimit="10" stroke-linecap="round"/>
<path d="M144.267 97.5128C158.167 102.211 168.993 88.3237 173.756 74.8542C180.824 57.4103 177.326 39.5466 167.778 34.8809C170.641 44.2238 163.175 78.5534 163.175 78.5534C163.175 78.5534 155.252 93.6332 144.267 97.5128Z" fill="#DD440E"/>
<path d="M161.118 31.9851C155.737 30.2399 139.882 32.7124 132.9 58.0219C124.609 86.2406 133.627 95.2588 138.428 96.7116C143.228 98.1662 160.391 101.075 169.119 69.3663C177.846 37.6573 166.5 33.7302 161.118 31.9851ZM141.81 62.8111C139.973 62.8111 139.977 59.9626 141.81 59.9626C141.81 60.5456 142.165 62.8111 141.81 62.8111ZM146.648 55.0253C146.775 54.4252 147.256 53.6542 147.159 53.039C147.039 52.2756 147.882 51.8426 148.695 51.6204C149.377 51.4324 149.787 51.5217 149.907 52.2813C150.036 53.1016 149.975 53.8517 149.734 54.6455C149.588 55.1259 149.204 55.8343 149.44 56.3375C149.766 57.0363 148.973 57.6079 148.258 58.0257C147.638 58.3884 147.305 58.4719 146.979 57.775C146.553 56.8635 146.437 56.0109 146.648 55.0253ZM143.881 70.84C143.881 70.84 146.415 64.0568 149.309 64.2296C149.48 64.0492 150.131 63.8783 150.368 63.8422C150.811 63.7758 150.797 64.2125 151.24 64.279C151.671 64.3436 152.172 64.8411 152.235 65.2741C152.313 65.8077 152.364 66.3242 152.674 66.7761C152.757 66.8996 152.816 67.023 152.858 67.1445C153.089 67.2566 153.308 67.399 153.505 67.5699C155.159 69.015 155.818 73.4188 154.7 75.2817C154.248 76.0336 152.808 75.2076 152.184 74.5145C151.53 73.7891 149.971 73.979 149.092 73.8099C148.819 73.7568 148.264 73.7986 148.264 73.7986C148.264 73.7986 146.329 74.148 145.347 73.9106C144.597 73.7302 143.944 72.7123 144.142 71.9869L143.881 70.84ZM157.939 58.4681C157.966 60.3044 155.541 60.05 155.513 58.2175C155.494 56.9034 156.217 55.9938 156.259 54.7006C156.318 52.87 158.224 52.8662 158.165 54.7006C158.124 55.9976 157.919 57.1787 157.939 58.4681ZM161.003 69.0169C160.695 68.8536 160.439 68.4966 160.347 68.1662C160.258 67.8415 160.288 67.3553 160.492 67.0686C160.499 67.0591 160.503 67.0496 160.511 67.0401C160.478 66.8407 160.488 66.6394 160.543 66.44C160.59 66.3261 160.638 66.2141 160.687 66.1001C160.862 65.7716 161.627 65.6425 161.971 65.5304L161.003 69.0169Z" fill="#F17E4F"/>
<path d="M143.027 45.3871C143.752 43.94 146.039 39.8553 150.978 37.4361C154.352 35.7839 157.465 35.6434 159.123 35.6909" stroke="white" stroke-width="2" stroke-miterlimit="10" stroke-linecap="round"/>
<path d="M147.82 74.0371C148.145 74.039 151.236 74.0371 151.236 74.0371L154.331 75.6683L153.526 77.1419H151.077L147.82 74.0371Z" fill="#DD440E"/>
<path d="M144.507 74.2378L140.63 74.5758L139.513 70.5025L143.49 63.8371L148.678 62.5078L150.898 63.689L147.191 65.2366L144.175 69.8284L144.266 73.556L144.507 74.2378Z" fill="#DD440E"/>
<path d="M140.757 58.7528L138.254 56.9316L136.023 59.9624L137.914 64.7326L140.63 65.5283L141.655 63.8363L140.434 61.3866L140.757 58.7528Z" fill="#DD440E"/>
<path d="M149.083 51.3002L146.734 49.3613L143.726 52.206L143.458 57.8288L145.689 59.9614L148.259 58.6055L146.546 55.6317L147.159 53.0358L149.083 51.3002Z" fill="#DD440E"/>
<path d="M157.212 53.3252L154.576 51.7852L151.635 56.2439L152.67 61.3845L155.252 62.0624L156.517 60.6686L155.644 57.4726L157.212 53.3252Z" fill="#DD440E"/>
<path d="M161.752 64.6829L159.781 62.8105L156.323 65.847L156.097 69.8273L157.616 71.147L160.315 70.0399C160.315 70.0399 160.364 67.501 160.347 67.2712C160.33 67.0434 161.752 64.6829 161.752 64.6829Z" fill="#DD440E"/>
<path d="M157.793 77.3223C157.537 78.5129 156.802 80.3663 154.538 81.0765C152.087 81.8437 150.366 81.0082 150.366 81.0082" stroke="white" stroke-width="2" stroke-miterlimit="10" stroke-linecap="round"/>
<path d="M138.428 96.7116C143.228 98.1662 160.391 101.075 169.119 69.3663C177.847 37.6573 166.5 33.7302 161.119 31.9851C155.737 30.2399 139.882 32.7124 132.9 58.0219C124.611 86.2387 133.629 95.2569 138.428 96.7116Z" stroke="black" stroke-width="2" stroke-miterlimit="10"/>
<path d="M141.676 97.5143C146.477 98.9689 166.315 102.366 175.043 70.6571C183.771 38.948 166.502 33.7334 161.12 31.9883" stroke="black" stroke-width="2" stroke-miterlimit="10"/>
<path d="M139.651 72.7571C140.78 76.914 144.233 73.5167 147.212 74.3067C150.114 75.0758 150.197 78.9117 153.515 77.0868C156.832 75.2619 153.557 63.8187 149.106 62.6375C144.654 61.4582 138.521 68.6003 139.651 72.7571Z" stroke="black" stroke-width="2" stroke-miterlimit="10"/>
<path d="M149.559 55.1118C149.933 52.3292 148.866 49.8895 147.176 49.6625C145.486 49.4355 143.813 51.5072 143.439 54.2898C143.065 57.0724 144.132 59.5121 145.822 59.7391C147.513 59.9661 149.186 57.8943 149.559 55.1118Z" stroke="black" stroke-width="2" stroke-miterlimit="10"/>
<path d="M157.961 57.3403C158.334 54.5577 157.267 52.118 155.577 51.891C153.887 51.664 152.214 53.7357 151.84 56.5183C151.467 59.3009 152.534 61.7406 154.224 61.9676C155.914 62.1946 157.587 60.1229 157.961 57.3403Z" stroke="black" stroke-width="2" stroke-miterlimit="10"/>
<path d="M161.51 68.2316C162.404 66.1412 162.014 63.9697 160.639 63.3815C159.264 62.7933 157.425 64.0111 156.53 66.1016C155.636 68.1921 156.026 70.3636 157.401 70.9518C158.776 71.54 160.615 70.3221 161.51 68.2316Z" stroke="black" stroke-width="2" stroke-miterlimit="10"/>
<path d="M140.201 65.4367C141.609 65.0498 142.249 62.9155 141.632 60.6695C141.015 58.4236 139.373 56.9165 137.966 57.3034C136.558 57.6903 135.917 59.8246 136.535 62.0705C137.152 64.3165 138.793 65.8235 140.201 65.4367Z" stroke="black" stroke-width="2" stroke-miterlimit="10"/>
<path d="M150.742 63.6963C147.805 63.495 142.953 69.5357 143.828 72.7582C144.037 73.5292 144.639 74.0039 145.416 74.2394" stroke="black" stroke-width="2" stroke-miterlimit="10"/>
<path d="M146.403 74.1839C147.446 73.9371 150.344 74.0301 151.39 74.3093C152.681 74.6511 154.33 75.6727 154.33 75.6727" stroke="black" stroke-width="2" stroke-miterlimit="10"/>
<path d="M148.221 58.1645C147.193 58.1778 146.229 55.9313 147.036 53.8975C147.552 52.5929 148.46 51.5314 148.908 51.5693" stroke="black" stroke-width="2" stroke-miterlimit="10"/>
<path d="M156.678 60.6724C156.025 59.5634 155.767 57.8847 156.084 56.1376C156.31 54.9014 156.785 53.8418 157.392 53.0879" stroke="black" stroke-width="2" stroke-miterlimit="10"/>
<path d="M160.515 69.8284C159.994 68.6321 160.198 66.8299 161.119 65.3184C161.341 64.9538 161.59 64.6328 161.852 64.3594" stroke="black" stroke-width="2" stroke-miterlimit="10"/>
<path d="M141.604 63.9836C141.34 63.6038 141.105 63.1633 140.918 62.6695C140.389 61.2757 140.362 59.8097 140.757 58.752" stroke="black" stroke-width="2" stroke-miterlimit="10"/>
<path d="M163.895 27.5274C167.771 27.5274 170.913 24.3851 170.913 20.5088C170.913 16.6326 167.771 13.4902 163.895 13.4902C160.018 13.4902 156.876 16.6326 156.876 20.5088C156.876 24.3851 160.018 27.5274 163.895 27.5274Z" fill="#F17E4F" stroke="black" stroke-width="2" stroke-miterlimit="10"/>
<path d="M159.878 21.338C159.212 19.8511 159.635 17.4926 161.785 16.4899C164.113 15.4018 166.278 16.0512 167.603 17.4926" stroke="white" stroke-width="2" stroke-miterlimit="10" stroke-linecap="round"/>
<path d="M49.9412 115.524C51.809 115.524 53.3232 114.01 53.3232 112.142C53.3232 110.274 51.809 108.76 49.9412 108.76C48.0733 108.76 46.5591 110.274 46.5591 112.142C46.5591 114.01 48.0733 115.524 49.9412 115.524Z" fill="#F17E4F" stroke="black" stroke-width="2" stroke-miterlimit="10"/>
<path d="M48.1603 112.291C47.8945 111.697 48.0635 110.753 48.9237 110.35C49.8561 109.915 50.7221 110.176 51.2519 110.753" stroke="white" stroke-width="2" stroke-miterlimit="10" stroke-linecap="round"/>
</svg>
