<svg width="139" height="34" viewBox="0 0 139 34" fill="none" xmlns="http://www.w3.org/2000/svg">
<path d="M28.1895 33.4482C25.915 33.4482 24.1304 33.0747 22.8354 32.3276C21.4409 31.5474 20.6855 30.4434 20.5693 29.0156L20.3452 26.6748C21.8726 26.3096 23.1592 25.3633 24.2051 23.8359C24.4873 23.4043 24.6284 23.0308 24.6284 22.7153C24.6284 22.2837 24.4126 22.0679 23.981 22.0679H23.9062C23.8896 22.0845 23.8564 22.0928 23.8066 22.0928C22.6445 24.5332 20.7603 25.7534 18.1538 25.7534C16.8257 25.7534 15.6885 25.4629 14.7422 24.8818C13.8125 24.3008 12.9575 23.2964 12.1772 21.8687H12.0278C11.5796 21.8687 11.3555 22.0596 11.3555 22.4414C11.3555 22.707 11.4551 23.0059 11.6543 23.3379C12.3184 24.4502 13.1484 25.3218 14.1445 25.9526C14.9248 26.4839 15.7466 26.7993 16.6099 26.8989L16.4106 31.6055C15.4146 32.2529 14.3604 32.7178 13.248 33C12.1523 33.2988 10.5835 33.4482 8.5415 33.4482C6.51611 33.4482 4.70654 33.0498 3.11279 32.2529C1.15381 31.2734 0.174316 29.9121 0.174316 28.1689C0.174316 25.9941 0.605957 20.6235 1.46924 12.0571C1.93408 7.59131 2.30762 4.47021 2.58984 2.69385C4.2998 1.1665 6.82324 0.402832 10.1602 0.402832C12.584 0.402832 14.5928 0.851074 16.1865 1.74756L17.5562 6.32959L16.6846 9.99023C16.6182 10.2393 16.585 10.48 16.585 10.7124C16.585 11.2935 16.917 11.5923 17.5811 11.6089L19.9468 1.77246C20.6274 1.40723 21.5156 1.0918 22.6113 0.826172C23.707 0.543945 24.9023 0.402832 26.1973 0.402832C28.6211 0.402832 30.4141 0.817871 31.5762 1.64795C32.7549 2.46143 33.4521 3.83936 33.668 5.78174C33.7178 6.14697 33.7925 6.75293 33.8921 7.59961C35.4028 20.582 36.1582 28.2271 36.1582 30.5347C34.3154 32.4771 31.6592 33.4482 28.1895 33.4482ZM53.8638 15.8174C53.8638 14.1572 53.7891 13.02 53.6396 12.4058C53.4902 11.7749 53.2163 11.4595 52.8179 11.4595C52.5688 11.4595 52.3447 11.5425 52.1455 11.7085C52.1787 12.0073 52.2285 12.4058 52.2949 12.9038C52.3613 13.4019 52.3945 14.4644 52.3945 16.0913V17.71C52.3945 18.8389 52.3696 19.6606 52.3198 20.1753C52.27 20.6899 52.2285 21.1299 52.1953 21.4951C52.1787 21.6943 52.1621 21.8936 52.1455 22.0928C52.3447 22.2588 52.5688 22.3418 52.8179 22.3418C53.2163 22.3418 53.4902 22.0347 53.6396 21.4204C53.7891 20.7896 53.8638 19.644 53.8638 17.9839V15.8174ZM52.8677 33.7969C49.9126 33.7969 47.1982 33.1909 44.7246 31.979C42.2676 30.7505 40.2837 28.8828 38.7729 26.376C37.2622 23.8525 36.5068 20.7065 36.5068 16.938C36.5068 11.4761 38.1504 7.20947 41.4375 4.13818C44.3594 1.43213 48.1196 0.0791016 52.7183 0.0791016C57.7153 0.0791016 61.6665 1.63135 64.5718 4.73584C67.4937 7.82373 68.9546 11.8911 68.9546 16.938C68.9546 22.5493 67.394 26.8325 64.2729 29.7876C61.4341 32.4604 57.6323 33.7969 52.8677 33.7969ZM97.5674 33.4482C95.293 33.4482 93.5083 33.0747 92.2134 32.3276C90.8188 31.5474 90.0635 30.4434 89.9473 29.0156L89.7231 26.6748C91.2505 26.3096 92.5371 25.3633 93.583 23.8359C93.8652 23.4043 94.0063 23.0308 94.0063 22.7153C94.0063 22.2837 93.7905 22.0679 93.3589 22.0679H93.2842C93.2676 22.0845 93.2344 22.0928 93.1846 22.0928C92.0225 24.5332 90.1382 25.7534 87.5317 25.7534C86.2036 25.7534 85.0664 25.4629 84.1201 24.8818C83.1904 24.3008 82.3354 23.2964 81.5552 21.8687H81.4058C80.9575 21.8687 80.7334 22.0596 80.7334 22.4414C80.7334 22.707 80.833 23.0059 81.0322 23.3379C81.6963 24.4502 82.5264 25.3218 83.5225 25.9526C84.3027 26.4839 85.1245 26.7993 85.9878 26.8989L85.7886 31.6055C84.7925 32.2529 83.7383 32.7178 82.626 33C81.5303 33.2988 79.9614 33.4482 77.9194 33.4482C75.894 33.4482 74.0845 33.0498 72.4907 32.2529C70.5317 31.2734 69.5522 29.9121 69.5522 28.1689C69.5522 25.9941 69.9839 20.6235 70.8472 12.0571C71.312 7.59131 71.6855 4.47021 71.9678 2.69385C73.6777 1.1665 76.2012 0.402832 79.5381 0.402832C81.9619 0.402832 83.9707 0.851074 85.5645 1.74756L86.9341 6.32959L86.0625 9.99023C85.9961 10.2393 85.9629 10.48 85.9629 10.7124C85.9629 11.2935 86.2949 11.5923 86.959 11.6089L89.3247 1.77246C90.0054 1.40723 90.8936 1.0918 91.9893 0.826172C93.085 0.543945 94.2803 0.402832 95.5752 0.402832C97.999 0.402832 99.792 0.817871 100.954 1.64795C102.133 2.46143 102.83 3.83936 103.046 5.78174C103.096 6.14697 103.17 6.75293 103.27 7.59961C104.781 20.582 105.536 28.2271 105.536 30.5347C103.693 32.4771 101.037 33.4482 97.5674 33.4482ZM123.242 15.8174C123.242 14.1572 123.167 13.02 123.018 12.4058C122.868 11.7749 122.594 11.4595 122.196 11.4595C121.947 11.4595 121.723 11.5425 121.523 11.7085C121.557 12.0073 121.606 12.4058 121.673 12.9038C121.739 13.4019 121.772 14.4644 121.772 16.0913V17.71C121.772 18.8389 121.748 19.6606 121.698 20.1753C121.648 20.6899 121.606 21.1299 121.573 21.4951C121.557 21.6943 121.54 21.8936 121.523 22.0928C121.723 22.2588 121.947 22.3418 122.196 22.3418C122.594 22.3418 122.868 22.0347 123.018 21.4204C123.167 20.7896 123.242 19.644 123.242 17.9839V15.8174ZM122.246 33.7969C119.291 33.7969 116.576 33.1909 114.103 31.979C111.646 30.7505 109.662 28.8828 108.151 26.376C106.64 23.8525 105.885 20.7065 105.885 16.938C105.885 11.4761 107.528 7.20947 110.815 4.13818C113.737 1.43213 117.498 0.0791016 122.096 0.0791016C127.093 0.0791016 131.044 1.63135 133.95 4.73584C136.872 7.82373 138.333 11.8911 138.333 16.938C138.333 22.5493 136.772 26.8325 133.651 29.7876C130.812 32.4604 127.01 33.7969 122.246 33.7969Z" fill="#EB844C"/>
</svg>
