<svg width="254" height="191" viewBox="0 0 254 191" fill="none" xmlns="http://www.w3.org/2000/svg">
<g opacity="0.25">
<path d="M173.253 138.073C185.043 129.751 190.841 126.922 197.988 129.249C205.135 131.575 208.157 137.274 212.791 150.941C212.955 151.424 213.123 151.917 213.294 152.418C217.108 163.596 222.351 178.962 213.318 186.269C204.37 193.508 197.482 188.971 190.607 184.443C187.661 182.503 184.717 180.564 181.615 179.554C178.513 178.545 174.992 178.38 171.469 178.214C163.246 177.829 155.008 177.443 152.034 166.324C149.032 155.1 162.314 145.764 171.977 138.971C172.41 138.667 172.836 138.367 173.253 138.073ZM227.055 138.927C233.294 133.482 245.677 131.584 251.122 137.823C256.567 144.061 253.013 156.074 246.775 161.519C238.1 169.091 229.261 167.897 223.815 161.659C218.37 155.42 218.613 146.297 227.055 138.927ZM154.582 104.163C162.656 102.324 171.549 111.146 173.388 119.22C175.875 130.147 170.703 137.666 162.629 139.504C154.555 141.343 146.706 137.106 144.149 125.878C142.311 117.804 146.508 106.001 154.582 104.163ZM210.162 108.088C215.642 100.815 228.004 95.5653 234.617 100.548C241.23 105.532 239.591 118.861 234.111 126.134C226.49 136.249 217.241 137.368 210.628 132.385C204.014 127.402 202.745 117.931 210.162 108.088ZM189.93 83.1588C198.208 83.3565 204.641 95.1843 204.424 104.319C204.129 116.681 197.255 123.342 188.976 123.145C180.698 122.947 174.142 116.308 174.445 103.605C174.663 94.4702 181.652 82.9614 189.93 83.1588ZM55.8152 46.0923C62.9624 43.7662 68.7602 46.5948 80.5506 54.9166C80.9673 55.2107 81.393 55.5106 81.826 55.815C91.4892 62.6076 104.771 71.9439 101.769 83.1675C98.7955 94.2865 90.5571 94.6726 82.3348 95.0582C78.8111 95.2234 75.2903 95.3884 72.1883 96.398C69.0863 97.4076 66.1429 99.3464 63.1971 101.287C56.3228 105.814 49.4347 110.352 40.4861 103.113C31.4535 95.8059 36.6954 80.4403 40.5096 69.2613C40.6805 68.7603 40.8487 68.2678 41.0125 67.7847C45.6463 54.1176 48.6683 48.4186 55.8152 46.0923ZM2.68145 54.6666C8.12672 48.4283 20.5094 50.3259 26.7479 55.7711C35.1904 63.1404 35.4344 72.2642 29.9891 78.5025C24.5438 84.7407 15.7044 85.9351 7.0291 78.3629C0.790881 72.9176 -2.76352 60.905 2.68145 54.6666ZM80.4168 36.065C82.2551 27.991 91.1485 19.1681 99.2225 21.0064C107.296 22.845 111.493 34.6474 109.655 42.7213C107.099 53.9492 99.2494 58.1863 91.1756 56.3482C83.1017 54.5099 77.9291 46.9915 80.4168 36.065ZM19.1873 17.3921C25.8007 12.4092 38.1621 17.6591 43.6424 24.9322C51.059 34.7751 49.7897 44.2458 43.1766 49.2291C36.5632 54.2122 27.3145 53.0926 19.6932 42.9781C14.2128 35.7049 12.5739 22.3753 19.1873 17.3921ZM63.8738 0.00250107C72.1521 -0.19474 79.1414 11.314 79.3592 20.4488C79.6618 33.1519 73.1051 39.7915 64.827 39.9888C56.5487 40.1862 49.6754 33.5251 49.3807 21.1627C49.1631 12.0279 55.5957 0.199836 63.8738 0.00250107Z" fill="black" style="mix-blend-mode:soft-light"/>
</g>
</svg>
